<svg xmlns="http://www.w3.org/2000/svg" width="26" height="26" viewBox="0 0 26 26"><defs><style>.a,.d{fill:none;}.a{stroke:#868686;}.b{fill:#868686;}.c{stroke:none;}</style></defs><g transform="translate(10703.558 24287)"><g class="a" transform="translate(-10703.558 -24287)"><circle class="c" cx="13" cy="13" r="13"/><circle class="d" cx="13" cy="13" r="12.5"/></g><path class="b" d="M11.616,15.612H2.68A2.683,2.683,0,0,1,0,13.089l0-.157V5.783A2.683,2.683,0,0,1,2.524,3.107l.157,0h3.8V1.868A1.348,1.348,0,0,1,6.12.39C6.223.121,6.823,0,7.372,0S8.521.121,8.624.39a1.349,1.349,0,0,1-.357,1.477V3.1h3.351a2.684,2.684,0,0,1,2.677,2.524l0,.158v7.149a2.683,2.683,0,0,1-2.524,2.676ZM4.928,10.859a.494.494,0,0,0-.362.829,3.593,3.593,0,0,0,2.617,1.148h.025a3.384,3.384,0,0,0,2.539-1.148.493.493,0,0,0-.72-.67,2.515,2.515,0,0,1-1.857.822H7.159a2.56,2.56,0,0,1-1.869-.822A.492.492,0,0,0,4.928,10.859Zm5.125-4.182a1.34,1.34,0,1,0,1.34,1.34A1.342,1.342,0,0,0,10.053,6.677Zm-5.362,0a1.34,1.34,0,1,0,1.341,1.34A1.342,1.342,0,0,0,4.691,6.677Z" transform="translate(-10697.706 -24282.805)"/><path class="b" d="M2.386,4.771A2.385,2.385,0,1,1,4.771,2.386,2.388,2.388,0,0,1,2.386,4.771ZM2.96,1.786a.592.592,0,1,0,0,1.184H3A.592.592,0,1,0,3,1.786Z" transform="translate(-10685.786 -24275.523)"/><path class="b" d="M2.386,4.771A2.385,2.385,0,1,1,4.771,2.386,2.388,2.388,0,0,1,2.386,4.771ZM1.775,1.786a.592.592,0,1,0,0,1.184h.036a.592.592,0,0,0,0-1.184Z" transform="translate(-10700.1 -24275.523)"/></g></svg>